<?xml version="1.0" encoding="UTF-8"?>
<!DOCTYPE svg PUBLIC "-//W3C//DTD SVG 1.1//EN" "http://www.w3.org/Graphics/SVG/1.1/DTD/svg11.dtd">
<svg xmlns="http://www.w3.org/2000/svg" version="1.1" width="256px" height="256px" style="shape-rendering:geometricPrecision; text-rendering:geometricPrecision; image-rendering:optimizeQuality; fill-rule:evenodd; clip-rule:evenodd" xmlns:xlink="http://www.w3.org/1999/xlink">
<g><path style="opacity:0.008" fill="#2195f2" d="M 146.5,30.5 C 147.251,29.4265 148.251,29.2599 149.5,30C 148.552,30.4828 147.552,30.6495 146.5,30.5 Z"/></g>
<g><path style="opacity:1" fill="#1c83d4" d="M 127.5,30.5 C 127.5,95.1667 127.5,159.833 127.5,224.5C 121.167,224.5 114.833,224.5 108.5,224.5C 103.423,222.959 99.4235,219.959 96.5,215.5C 96.5,214.833 96.5,214.167 96.5,213.5C 97.8333,156.167 97.8333,98.8333 96.5,41.5C 97.9213,36.9102 100.921,33.7435 105.5,32C 112.746,30.6095 120.079,30.1095 127.5,30.5 Z"/></g>
<g><path style="opacity:1" fill="#2096f3" d="M 127.5,30.5 C 134.906,30.152 142.239,30.652 149.5,32C 154.02,34.0223 157.353,37.189 159.5,41.5C 160.833,98.8333 160.833,156.167 159.5,213.5C 158.662,213.842 158.328,214.508 158.5,215.5C 157.662,215.842 157.328,216.508 157.5,217.5C 156.833,217.5 156.5,217.833 156.5,218.5C 155.833,218.5 155.5,218.833 155.5,219.5C 154.833,219.5 154.5,219.833 154.5,220.5C 153.833,220.5 153.5,220.833 153.5,221.5C 152.508,221.328 151.842,221.662 151.5,222.5C 150.508,222.328 149.842,222.662 149.5,223.5C 142.201,224.35 134.868,224.683 127.5,224.5C 127.5,159.833 127.5,95.1667 127.5,30.5 Z"/></g>
<g><path style="opacity:0.008" fill="#2095f2" d="M 160.5,41.5 C 160.167,41.5 159.833,41.5 159.5,41.5C 159.833,38.8333 160.167,38.8333 160.5,41.5 Z"/></g>
<g><path style="opacity:0.012" fill="#2095f3" d="M 160.5,41.5 C 161.573,42.2506 161.74,43.2506 161,44.5C 160.517,43.552 160.351,42.552 160.5,41.5 Z"/></g>
<g><path style="opacity:1" fill="#1d84d7" d="M 96.5,41.5 C 97.8333,98.8333 97.8333,156.167 96.5,213.5C 96.1667,213.5 95.8333,213.5 95.5,213.5C 95.7373,212.209 95.404,211.209 94.5,210.5C 94.5,209.833 94.5,209.167 94.5,208.5C 95.8332,181.675 96.4998,154.508 96.5,127C 96.3333,99.8333 96.1667,72.6667 96,45.5C 95.6174,46.056 95.1174,46.3893 94.5,46.5C 94.7959,44.597 95.4625,42.9303 96.5,41.5 Z"/></g>
<g><path style="opacity:0.501" fill="#1c82d3" d="M 94.5,208.5 C 94.5,154.5 94.5,100.5 94.5,46.5C 95.1174,46.3893 95.6174,46.056 96,45.5C 96.1667,72.6667 96.3333,99.8333 96.5,127C 96.4998,154.508 95.8332,181.675 94.5,208.5 Z"/></g>
<g><path style="opacity:0.008" fill="#ffc006" d="M 50.5,78.5 C 51.2506,77.4265 52.2506,77.2599 53.5,78C 52.552,78.4828 51.552,78.6495 50.5,78.5 Z"/></g>
<g><path style="opacity:0.997" fill="#fec106" d="M 34.5,78.5 C 42.5146,77.708 50.1813,78.8747 57.5,82C 60.1208,84.1141 62.1208,86.6141 63.5,89.5C 64.8333,130.833 64.8333,172.167 63.5,213.5C 62.6618,213.842 62.3284,214.508 62.5,215.5C 61.6618,215.842 61.3284,216.508 61.5,217.5C 60.8333,217.5 60.5,217.833 60.5,218.5C 59.8333,218.5 59.5,218.833 59.5,219.5C 58.8333,219.5 58.5,219.833 58.5,220.5C 57.8333,220.5 57.5,220.833 57.5,221.5C 56.5084,221.328 55.8417,221.662 55.5,222.5C 54.5084,222.328 53.8417,222.662 53.5,223.5C 47.2026,224.32 40.8692,224.653 34.5,224.5C 34.5,175.833 34.5,127.167 34.5,78.5 Z"/></g>
<g><path style="opacity:1" fill="#dea805" d="M 34.5,78.5 C 34.5,127.167 34.5,175.833 34.5,224.5C 27.1667,224.5 19.8333,224.5 12.5,224.5C 7.42348,222.959 3.42348,219.959 0.5,215.5C 0.67158,214.508 0.338246,213.842 -0.5,213.5C -0.5,172.167 -0.5,130.833 -0.5,89.5C 0.338246,89.1583 0.67158,88.4916 0.5,87.5C 3.20411,82.9804 7.20411,80.1471 12.5,79C 19.8258,78.5003 27.1591,78.3337 34.5,78.5 Z"/></g>
<g><path style="opacity:0.012" fill="#dea705" d="M -0.5,85.5 C 0.338246,85.8417 0.67158,86.5084 0.5,87.5C 0.166667,87.5 -0.166667,87.5 -0.5,87.5C -0.5,86.8333 -0.5,86.1667 -0.5,85.5 Z"/></g>
<g><path style="opacity:0.008" fill="#fec106" d="M 64.5,89.5 C 64.1667,89.5 63.8333,89.5 63.5,89.5C 63.8333,86.8333 64.1667,86.8333 64.5,89.5 Z"/></g>
<g><path style="opacity:0.008" fill="#ffc006" d="M 64.5,89.5 C 65.5735,90.2506 65.7401,91.2506 65,92.5C 64.5172,91.552 64.3505,90.552 64.5,89.5 Z"/></g>
<g><path style="opacity:0.008" fill="#f44235" d="M 242.5,110.5 C 243.251,109.427 244.251,109.26 245.5,110C 244.552,110.483 243.552,110.649 242.5,110.5 Z"/></g>
<g><path style="opacity:0.971" fill="#d53a2f" d="M 223.5,110.5 C 223.5,148.5 223.5,186.5 223.5,224.5C 217.167,224.5 210.833,224.5 204.5,224.5C 203.5,223.833 202.5,223.167 201.5,222.5C 208.412,221.538 215.412,221.205 222.5,221.5C 222.5,185.5 222.5,149.5 222.5,113.5C 215.412,113.795 208.412,113.462 201.5,112.5C 202.263,111.732 203.263,111.232 204.5,111C 210.825,110.5 217.158,110.334 223.5,110.5 Z"/></g>
<g><path style="opacity:0.991" fill="#f34235" d="M 223.5,110.5 C 230.906,110.152 238.239,110.652 245.5,112C 249.3,113.642 252.3,116.142 254.5,119.5C 254.328,120.492 254.662,121.158 255.5,121.5C 255.5,152.167 255.5,182.833 255.5,213.5C 254.662,213.842 254.328,214.508 254.5,215.5C 253.662,215.842 253.328,216.508 253.5,217.5C 252.833,217.5 252.5,217.833 252.5,218.5C 251.833,218.5 251.5,218.833 251.5,219.5C 250.833,219.5 250.5,219.833 250.5,220.5C 249.833,220.5 249.5,220.833 249.5,221.5C 248.508,221.328 247.842,221.662 247.5,222.5C 246.508,222.328 245.842,222.662 245.5,223.5C 238.201,224.35 230.868,224.683 223.5,224.5C 223.5,186.5 223.5,148.5 223.5,110.5 Z"/></g>
<g><path style="opacity:1" fill="#d4392e" d="M 201.5,112.5 C 208.412,113.462 215.412,113.795 222.5,113.5C 222.5,149.5 222.5,185.5 222.5,221.5C 215.412,221.205 208.412,221.538 201.5,222.5C 197.612,221.275 194.612,218.941 192.5,215.5C 192.5,214.833 192.5,214.167 192.5,213.5C 193.833,182.833 193.833,152.167 192.5,121.5C 193.833,116.833 196.833,113.833 201.5,112.5 Z"/></g>
<g><path style="opacity:0.008" fill="#f34235" d="M 255.5,117.5 C 255.5,118.167 255.5,118.833 255.5,119.5C 255.167,119.5 254.833,119.5 254.5,119.5C 254.328,118.508 254.662,117.842 255.5,117.5 Z"/></g>
<g><path style="opacity:0.973" fill="#d73a2f" d="M 192.5,121.5 C 193.833,152.167 193.833,182.833 192.5,213.5C 192.167,213.5 191.833,213.5 191.5,213.5C 191.737,212.209 191.404,211.209 190.5,210.5C 190.5,209.833 190.5,209.167 190.5,208.5C 191.833,195.183 192.499,181.517 192.5,167.5C 192.499,153.483 191.833,139.817 190.5,126.5C 190.796,124.597 191.463,122.93 192.5,121.5 Z"/></g>
<g><path style="opacity:0.504" fill="#d3392e" d="M 190.5,126.5 C 191.833,139.817 192.499,153.483 192.5,167.5C 192.499,181.517 191.833,195.183 190.5,208.5C 190.5,181.167 190.5,153.833 190.5,126.5 Z"/></g>
<g><path style="opacity:0.008" fill="#ffc006" d="M 64.5,213.5 C 64.3505,212.448 64.5172,211.448 65,210.5C 65.7401,211.749 65.5735,212.749 64.5,213.5 Z"/></g>
<g><path style="opacity:0.01" fill="#1c83d4" d="M 94.5,210.5 C 94.5,211.5 94.5,212.5 94.5,213.5C 93.1667,212.5 93.1667,211.5 94.5,210.5 Z"/></g>
<g><path style="opacity:0.012" fill="#2195f3" d="M 160.5,213.5 C 160.351,212.448 160.517,211.448 161,210.5C 161.74,211.749 161.573,212.749 160.5,213.5 Z"/></g>
<g><path style="opacity:0.01" fill="#d4392e" d="M 190.5,210.5 C 190.5,211.5 190.5,212.5 190.5,213.5C 189.167,212.5 189.167,211.5 190.5,210.5 Z"/></g>
<g><path style="opacity:0.008" fill="#fdc005" d="M 63.5,213.5 C 63.8333,213.5 64.1667,213.5 64.5,213.5C 64.6716,214.492 64.3382,215.158 63.5,215.5C 63.5,214.833 63.5,214.167 63.5,213.5 Z"/></g>
<g><path style="opacity:0.008" fill="#2094f3" d="M 159.5,213.5 C 159.833,213.5 160.167,213.5 160.5,213.5C 160.672,214.492 160.338,215.158 159.5,215.5C 159.5,214.833 159.5,214.167 159.5,213.5 Z"/></g>
<g><path style="opacity:0.008" fill="#1c83d4" d="M 94.5,213.5 C 94.8333,213.5 95.1667,213.5 95.5,213.5C 95.5,214.167 95.5,214.833 95.5,215.5C 94.6618,215.158 94.3284,214.492 94.5,213.5 Z"/></g>
<g><path style="opacity:0.008" fill="#d4392e" d="M 190.5,213.5 C 190.833,213.5 191.167,213.5 191.5,213.5C 191.5,214.167 191.5,214.833 191.5,215.5C 190.662,215.158 190.328,214.492 190.5,213.5 Z"/></g>
<g><path style="opacity:0.008" fill="#f34235" d="M 254.5,215.5 C 254.833,215.5 255.167,215.5 255.5,215.5C 255.5,216.167 255.5,216.833 255.5,217.5C 255.167,217.5 254.833,217.5 254.5,217.5C 254.5,216.833 254.5,216.167 254.5,215.5 Z"/></g>
<g><path style="opacity:0.004" fill="#e1aa05" d="M -0.5,215.5 C -0.166667,215.5 0.166667,215.5 0.5,215.5C 0.67158,216.492 0.338246,217.158 -0.5,217.5C -0.5,216.833 -0.5,216.167 -0.5,215.5 Z"/></g>
<g><path style="opacity:0.004" fill="#fec006" d="M 62.5,215.5 C 62.8333,215.5 63.1667,215.5 63.5,215.5C 63.6716,216.492 63.3382,217.158 62.5,217.5C 62.5,216.833 62.5,216.167 62.5,215.5 Z"/></g>
<g><path style="opacity:0.004" fill="#1c84d6" d="M 95.5,215.5 C 95.8333,215.5 96.1667,215.5 96.5,215.5C 96.1667,218.167 95.8333,218.167 95.5,215.5 Z"/></g>
<g><path style="opacity:0.004" fill="#2095f2" d="M 158.5,215.5 C 158.833,215.5 159.167,215.5 159.5,215.5C 159.672,216.492 159.338,217.158 158.5,217.5C 158.5,216.833 158.5,216.167 158.5,215.5 Z"/></g>
<g><path style="opacity:0.004" fill="#d73a2e" d="M 191.5,215.5 C 191.833,215.5 192.167,215.5 192.5,215.5C 192.167,218.167 191.833,218.167 191.5,215.5 Z"/></g>
<g><path style="opacity:0.008" fill="#fec106" d="M 61.5,217.5 C 61.8333,217.5 62.1667,217.5 62.5,217.5C 62.3147,218.17 61.9813,218.17 61.5,217.5 Z"/></g>
<g><path style="opacity:0.008" fill="#2095f2" d="M 157.5,217.5 C 157.833,217.5 158.167,217.5 158.5,217.5C 158.315,218.17 157.981,218.17 157.5,217.5 Z"/></g>
<g><path style="opacity:0.008" fill="#f24235" d="M 253.5,217.5 C 253.833,217.5 254.167,217.5 254.5,217.5C 254.315,218.17 253.981,218.17 253.5,217.5 Z"/></g>
<g><path style="opacity:0.012" fill="#fec006" d="M 60.5,218.5 C 60.8333,218.5 61.1667,218.5 61.5,218.5C 61.3147,219.17 60.9813,219.17 60.5,218.5 Z"/></g>
<g><path style="opacity:0.012" fill="#2194f3" d="M 156.5,218.5 C 156.833,218.5 157.167,218.5 157.5,218.5C 157.315,219.17 156.981,219.17 156.5,218.5 Z"/></g>
<g><path style="opacity:0.012" fill="#f34234" d="M 252.5,218.5 C 252.833,218.5 253.167,218.5 253.5,218.5C 253.315,219.17 252.981,219.17 252.5,218.5 Z"/></g>
<g><path style="opacity:0.012" fill="#fec006" d="M 59.5,219.5 C 59.8333,219.5 60.1667,219.5 60.5,219.5C 60.3147,220.17 59.9813,220.17 59.5,219.5 Z"/></g>
<g><path style="opacity:0.012" fill="#2094f3" d="M 155.5,219.5 C 155.833,219.5 156.167,219.5 156.5,219.5C 156.315,220.17 155.981,220.17 155.5,219.5 Z"/></g>
<g><path style="opacity:0.012" fill="#f24235" d="M 251.5,219.5 C 251.833,219.5 252.167,219.5 252.5,219.5C 252.315,220.17 251.981,220.17 251.5,219.5 Z"/></g>
<g><path style="opacity:0.012" fill="#fec105" d="M 58.5,220.5 C 58.8333,220.5 59.1667,220.5 59.5,220.5C 59.3147,221.17 58.9813,221.17 58.5,220.5 Z"/></g>
<g><path style="opacity:0.012" fill="#2194f3" d="M 154.5,220.5 C 154.833,220.5 155.167,220.5 155.5,220.5C 155.315,221.17 154.981,221.17 154.5,220.5 Z"/></g>
<g><path style="opacity:0.012" fill="#f34235" d="M 250.5,220.5 C 250.833,220.5 251.167,220.5 251.5,220.5C 251.315,221.17 250.981,221.17 250.5,220.5 Z"/></g>
<g><path style="opacity:0.008" fill="#fec106" d="M 57.5,221.5 C 57.8333,221.5 58.1667,221.5 58.5,221.5C 58.3147,222.17 57.9813,222.17 57.5,221.5 Z"/></g>
<g><path style="opacity:0.008" fill="#2194f2" d="M 153.5,221.5 C 153.833,221.5 154.167,221.5 154.5,221.5C 154.315,222.17 153.981,222.17 153.5,221.5 Z"/></g>
<g><path style="opacity:0.008" fill="#f24235" d="M 249.5,221.5 C 249.833,221.5 250.167,221.5 250.5,221.5C 250.315,222.17 249.981,222.17 249.5,221.5 Z"/></g>
<g><path style="opacity:0.004" fill="#fec006" d="M 55.5,223.5 C 55.5,223.167 55.5,222.833 55.5,222.5C 56.1667,222.5 56.8333,222.5 57.5,222.5C 57.1583,223.338 56.4916,223.672 55.5,223.5 Z"/></g>
<g><path style="opacity:0.004" fill="#2095f2" d="M 151.5,223.5 C 151.5,223.167 151.5,222.833 151.5,222.5C 152.167,222.5 152.833,222.5 153.5,222.5C 153.158,223.338 152.492,223.672 151.5,223.5 Z"/></g>
<g><path style="opacity:0.008" fill="#f34235" d="M 247.5,223.5 C 247.5,223.167 247.5,222.833 247.5,222.5C 248.167,222.5 248.833,222.5 249.5,222.5C 249.158,223.338 248.492,223.672 247.5,223.5 Z"/></g>
<g><path style="opacity:0.008" fill="#ffc005" d="M 53.5,224.5 C 53.5,224.167 53.5,223.833 53.5,223.5C 54.1667,223.5 54.8333,223.5 55.5,223.5C 55.1583,224.338 54.4916,224.672 53.5,224.5 Z"/></g>
<g><path style="opacity:0.008" fill="#2095f3" d="M 149.5,224.5 C 149.5,224.167 149.5,223.833 149.5,223.5C 150.167,223.5 150.833,223.5 151.5,223.5C 151.158,224.338 150.492,224.672 149.5,224.5 Z"/></g>
<g><path style="opacity:0.008" fill="#f34235" d="M 245.5,224.5 C 245.5,224.167 245.5,223.833 245.5,223.5C 246.167,223.5 246.833,223.5 247.5,223.5C 247.158,224.338 246.492,224.672 245.5,224.5 Z"/></g>
<g><path style="opacity:0.016" fill="#dda805" d="M 12.5,224.5 C 11.7494,225.573 10.7494,225.74 9.5,225C 10.448,224.517 11.448,224.351 12.5,224.5 Z"/></g>
<g><path style="opacity:0.012" fill="#fec106" d="M 53.5,224.5 C 52.7494,225.573 51.7494,225.74 50.5,225C 51.448,224.517 52.448,224.351 53.5,224.5 Z"/></g>
<g><path style="opacity:0.01" fill="#1c82d4" d="M 108.5,224.5 C 107.749,225.573 106.749,225.74 105.5,225C 106.448,224.517 107.448,224.351 108.5,224.5 Z"/></g>
<g><path style="opacity:0.009" fill="#2095f3" d="M 149.5,224.5 C 148.749,225.573 147.749,225.74 146.5,225C 147.448,224.517 148.448,224.351 149.5,224.5 Z"/></g>
<g><path style="opacity:0.01" fill="#d4392e" d="M 204.5,224.5 C 203.749,225.573 202.749,225.74 201.5,225C 202.448,224.517 203.448,224.351 204.5,224.5 Z"/></g>
<g><path style="opacity:0.008" fill="#f34335" d="M 245.5,224.5 C 244.749,225.573 243.749,225.74 242.5,225C 243.448,224.517 244.448,224.351 245.5,224.5 Z"/></g>
</svg>
