<?xml version="1.0" encoding="UTF-8"?>
<!DOCTYPE svg PUBLIC "-//W3C//DTD SVG 1.1//EN" "http://www.w3.org/Graphics/SVG/1.1/DTD/svg11.dtd">
<svg xmlns="http://www.w3.org/2000/svg" version="1.1" width="512px" height="512px" style="shape-rendering:geometricPrecision; text-rendering:geometricPrecision; image-rendering:optimizeQuality; fill-rule:evenodd; clip-rule:evenodd" xmlns:xlink="http://www.w3.org/1999/xlink">
<g><path style="opacity:0.998" fill="#f44336" d="M 64.5,63.5 C 127.836,114.16 191.503,164.493 255.5,214.5C 319.497,164.493 383.164,114.16 446.5,63.5C 470.041,59.1566 489.207,66.1566 504,84.5C 507.106,90.0319 509.606,95.6986 511.5,101.5C 511.5,204.167 511.5,306.833 511.5,409.5C 506.015,429.151 493.348,441.651 473.5,447C 464.84,447.5 456.173,447.666 447.5,447.5C 447.667,347.833 447.5,248.166 447,148.5C 383.223,198.123 319.056,247.123 254.5,295.5C 191.185,246.364 127.685,197.364 64,148.5C 63.5,248.166 63.3333,347.833 63.5,447.5C 40.2989,451.678 21.4655,444.678 7,426.5C 3.89416,420.968 1.39416,415.301 -0.5,409.5C -0.5,306.833 -0.5,204.167 -0.5,101.5C 4.98517,81.8488 17.6518,69.3488 37.5,64C 46.4938,63.5002 55.4938,63.3336 64.5,63.5 Z"/></g>
<g><path style="opacity:1" fill="#eceef0" d="M 64.5,63.5 C 191.833,63.5 319.167,63.5 446.5,63.5C 383.164,114.16 319.497,164.493 255.5,214.5C 191.503,164.493 127.836,114.16 64.5,63.5 Z"/></g>
<g><path style="opacity:1" fill="#eceef0" d="M 254.5,295.5 C 318.788,345.786 382.788,396.453 446.5,447.5C 318.833,447.5 191.167,447.5 63.5,447.5C 63.3333,347.833 63.5,248.166 64,148.5C 127.685,197.364 191.185,246.364 254.5,295.5 Z"/></g>
<g><path style="opacity:1" fill="#cfd7db" d="M 447.5,447.5 C 447.167,447.5 446.833,447.5 446.5,447.5C 382.788,396.453 318.788,345.786 254.5,295.5C 319.056,247.123 383.223,198.123 447,148.5C 447.5,248.166 447.667,347.833 447.5,447.5 Z"/></g>
</svg>
