<?xml version="1.0" encoding="UTF-8"?>
<!DOCTYPE svg PUBLIC "-//W3C//DTD SVG 1.1//EN" "http://www.w3.org/Graphics/SVG/1.1/DTD/svg11.dtd">
<svg xmlns="http://www.w3.org/2000/svg" version="1.1" width="64px" height="64px" style="shape-rendering:geometricPrecision; text-rendering:geometricPrecision; image-rendering:optimizeQuality; fill-rule:evenodd; clip-rule:evenodd" xmlns:xlink="http://www.w3.org/1999/xlink">
<g><path style="opacity:0.863" fill="#4c535c" d="M 3.5,-0.5 C 22.1667,-0.5 40.8333,-0.5 59.5,-0.5C 61.1667,0.5 62.5,1.83333 63.5,3.5C 63.5,22.1667 63.5,40.8333 63.5,59.5C 62.5,61.1667 61.1667,62.5 59.5,63.5C 40.8333,63.5 22.1667,63.5 3.5,63.5C 1.83333,62.5 0.5,61.1667 -0.5,59.5C -0.5,45.8333 -0.5,32.1667 -0.5,18.5C 0.166667,18.5 0.833333,18.5 1.5,18.5C 2.31458,31.425 2.81458,44.425 3,57.5C 3.83333,58.3333 4.66667,59.1667 5.5,60C 22.8333,60.6667 40.1667,60.6667 57.5,60C 58.3333,59.1667 59.1667,58.3333 60,57.5C 60.6667,40.1667 60.6667,22.8333 60,5.5C 59.5,5 59,4.5 58.5,4C 40.5,3.33333 22.5,3.33333 4.5,4C 3.94404,4.38258 3.61071,4.88258 3.5,5.5C 2.53178,7.60737 2.19845,9.9407 2.5,12.5C 20.1667,12.5 37.8333,12.5 55.5,12.5C 56.7736,13.1894 56.7736,14.0228 55.5,15C 37.5031,15.4999 19.5031,15.6666 1.5,15.5C 0.833333,15.5 0.166667,15.5 -0.5,15.5C -0.5,11.5 -0.5,7.5 -0.5,3.5C 0.5,1.83333 1.83333,0.5 3.5,-0.5 Z"/></g>
<g><path style="opacity:1" fill="#f7f8f9" d="M 1.5,18.5 C 1.5,17.5 1.5,16.5 1.5,15.5C 19.5031,15.6666 37.5031,15.4999 55.5,15C 56.7736,14.0228 56.7736,13.1894 55.5,12.5C 38.3414,11.5033 21.008,11.17 3.5,11.5C 3.5,9.5 3.5,7.5 3.5,5.5C 3.61071,4.88258 3.94404,4.38258 4.5,4C 22.5,3.33333 40.5,3.33333 58.5,4C 59,4.5 59.5,5 60,5.5C 60.6667,22.8333 60.6667,40.1667 60,57.5C 59.1667,58.3333 58.3333,59.1667 57.5,60C 40.1667,60.6667 22.8333,60.6667 5.5,60C 4.66667,59.1667 3.83333,58.3333 3,57.5C 2.81458,44.425 2.31458,31.425 1.5,18.5 Z"/></g>
<g><path style="opacity:1" fill="#565c64" d="M 5.5,6.5 C 6.67504,6.28099 7.67504,6.61432 8.5,7.5C 6.94835,8.79789 5.94835,8.46455 5.5,6.5 Z"/></g>
<g><path style="opacity:1" fill="#434b53" d="M 11.5,6.5 C 13.337,6.63945 13.6704,7.30612 12.5,8.5C 11.7025,8.04311 11.3691,7.37644 11.5,6.5 Z"/></g>
<g><path style="opacity:1" fill="#434b53" d="M 16.5,6.5 C 18.337,6.63945 18.6704,7.30612 17.5,8.5C 16.7025,8.04311 16.3691,7.37644 16.5,6.5 Z"/></g>
<g><path style="opacity:1" fill="#a6a9ad" d="M 3.5,5.5 C 3.5,7.5 3.5,9.5 3.5,11.5C 21.008,11.17 38.3414,11.5033 55.5,12.5C 37.8333,12.5 20.1667,12.5 2.5,12.5C 2.19845,9.9407 2.53178,7.60737 3.5,5.5 Z"/></g>
<g><path style="opacity:1" fill="#81c8ff" d="M 8.5,28.5 C 9.67504,28.281 10.675,28.6143 11.5,29.5C 12.4877,32.4501 13.321,35.4501 14,38.5C 16.6667,25.1667 19.3333,25.1667 22,38.5C 22.679,35.4501 23.5123,32.4501 24.5,29.5C 25.325,28.6143 26.325,28.281 27.5,28.5C 26.6531,33.8893 25.4864,39.2227 24,44.5C 22.6667,47.1667 21.3333,47.1667 20,44.5C 19.3333,41.8333 18.6667,39.1667 18,36.5C 17.321,39.5499 16.4877,42.5499 15.5,45.5C 14.5,46.8333 13.5,46.8333 12.5,45.5C 10.6929,39.9385 9.35953,34.2718 8.5,28.5 Z"/></g>
<g><path style="opacity:1" fill="#89cbff" d="M 33.5,31.5 C 32.5489,32.9187 32.2155,34.5853 32.5,36.5C 34.8333,36.5 37.1667,36.5 39.5,36.5C 39.5,37.5 39.5,38.5 39.5,39.5C 37.5,39.5 35.5,39.5 33.5,39.5C 32.5489,40.9187 32.2155,42.5853 32.5,44.5C 34.8333,44.5 37.1667,44.5 39.5,44.5C 39.5,45.5 39.5,46.5 39.5,47.5C 36.2234,47.7839 33.0567,47.4505 30,46.5C 29.5005,40.5092 29.3338,34.5092 29.5,28.5C 32.8333,28.5 36.1667,28.5 39.5,28.5C 39.5,29.5 39.5,30.5 39.5,31.5C 37.5,31.5 35.5,31.5 33.5,31.5 Z"/></g>
<g><path style="opacity:1" fill="#7ec7ff" d="M 42.5,28.5 C 46.0071,27.9935 49.1737,28.6602 52,30.5C 52.6514,32.235 52.4847,33.9017 51.5,35.5C 55.6999,39.6823 55.3666,43.5156 50.5,47C 47.9009,47.769 45.4009,47.6023 43,46.5C 42.5005,40.5092 42.3338,34.5092 42.5,28.5 Z"/></g>
<g><path style="opacity:1" fill="#f9fcff" d="M 45.5,31.5 C 46.8333,31.5 48.1667,31.5 49.5,31.5C 49.5,32.5 49.5,33.5 49.5,34.5C 48.1667,34.5 46.8333,34.5 45.5,34.5C 45.5,33.5 45.5,32.5 45.5,31.5 Z"/></g>
<g><path style="opacity:1" fill="#bbe1ff" d="M 33.5,31.5 C 33.5,32.8333 33.5,34.1667 33.5,35.5C 35.7354,35.2053 37.7354,35.5386 39.5,36.5C 37.1667,36.5 34.8333,36.5 32.5,36.5C 32.2155,34.5853 32.5489,32.9187 33.5,31.5 Z"/></g>
<g><path style="opacity:1" fill="#fcfdff" d="M 45.5,38.5 C 47.1992,38.3398 48.8659,38.5065 50.5,39C 51.8333,40.3333 51.8333,41.6667 50.5,43C 48.8659,43.4935 47.1992,43.6602 45.5,43.5C 45.5,41.8333 45.5,40.1667 45.5,38.5 Z"/></g>
<g><path style="opacity:1" fill="#bbe1ff" d="M 33.5,39.5 C 33.5,40.8333 33.5,42.1667 33.5,43.5C 35.7354,43.2053 37.7354,43.5386 39.5,44.5C 37.1667,44.5 34.8333,44.5 32.5,44.5C 32.2155,42.5853 32.5489,40.9187 33.5,39.5 Z"/></g>
</svg>
